{"title":"Into The White-720p MP4 AAC x264 BRRip 2012-CC","uid":7602847,"size":2966565874,"categoryP":"video","categoryS":"hd___movies","magnet":"?xt=urn:btih:4ad646de55be6f8dfd69935ee8595cff519c5871&amp;dn=Into+The+White-720p+MP4+AAC+x264+BRRip+2012-CC&amp;tr=udp%3A%2F%2Ftracker.openbittorrent.com%3A80&amp;tr=udp%3A%2F%2Fopen.demonii.com%3A1337&amp;tr=udp%3A%2F%2Ftracker.coppersurfer.tk%3A6969&amp;tr=udp%3A%2F%2Fexodus.desync.com%3A6969","seeders":0,"leechers":0,"uploader":"Caveman44","files":-1,"time":1346867955,"description":" &lt;a href=&quot;http://www.imdb.com/title/tt1876277/&quot; rel=&quot;nofollow&quot; target=&quot;_NEW&quot;&gt;http://www.imdb.com/title/tt1876277/&lt;/a&gt;\n\nSource: Into.The.White.2012.720p.BluRay.DTS.x264-PublicHD Thanks!\n\nSubs: Bulgarian, Czech, Danish, Dutch, English, Finnish, Norwegian, Spanish.\n\nSample and Screens included.\n\nGeneral\nComplete name                    : Into The White-720p MP4 AAC x264 BRRip 2012-CC.mp4\nFormat                           : MPEG-4\nFormat profile                   : Base Media\nCodec ID                         : isom\nFile size                        : 2.73 GiB\nDuration                         : 1h 39mn\nOverall bit rate                 : 3 915 Kbps\nEncoded date                     : UTC 2012-09-02 09:05:15\n\nVideo\nID                               : 1\nFormat                           : AVC\nFormat/Info                      : Advanced Video Codec\nFormat profile                   : &lt;a class=&quot;__cf_email__&quot; href=&quot;/cdn-cgi/l/email-protection&quot; data-cfemail=&quot;347c5d535c7478071a05&quot;&gt;[email&amp;#160;protected]&lt;/a&gt;&lt;script data-cfhash='f9e31' type=&quot;text/javascript&quot;&gt;\n/* &lt;![CDATA[ */!function(){try{var t=&quot;currentScript&quot;in document?document.currentScript:function(){for(var t=document.getElementsByTagName(&quot;script&quot;),e=t.length;e--;)if(t[e].getAttribute(&quot;data-cfhash&quot;))return t[e]}();if(t&amp;&amp;t.previousSibling){var e,r,n,i,c=t.previousSibling,a=c.getAttribute(&quot;data-cfemail&quot;);if(a){for(e=&quot;&quot;,r=parseInt(a.substr(0,2),16),n=2;a.length-n;n+=2)i=parseInt(a.substr(n,2),16)^r,e+=String.fromCharCode(i);e=document.createTextNode(e),c.parentNode.replaceChild(e,c)}t.parentNode.removeChild(t);}}catch(u){}}()/* ]]&gt; */&lt;/script&gt;\nFormat settings, CABAC           : Yes\nFormat settings, ReFrames        : 5 frames\nCodec ID                         : avc1\nCodec ID/Info                    : Advanced Video Coding\nDuration                         : 1h 39mn\nBit rate mode                    : Variable\nBit rate                         : 3 535 Kbps\nNominal bit rate                 : 3 625 Kbps\nMaximum bit rate                 : 26.7 Mbps\nWidth                            : 1 280 pixels\nHeight                           : 544 pixels\nDisplay aspect ratio             : 2.35:1\nFrame rate mode                  : Variable\nFrame rate                       : 25.000 fps\nMinimum frame rate               : 20.000 fps\nMaximum frame rate               : 25.000 fps\nResolution                       : 24 bits\nColorimetry                      : 4:2:0\nScan type                        : Progressive\nBits/(Pixel*Frame)               : 0.203\nStream size                      : 2.47 GiB (90%)\nWriting library                  : x264 core 112\n\nAudio\nID                               : 2\nFormat                           : AAC\nFormat/Info                      : Advanced Audio Codec\nFormat version                   : Version 4\nFormat profile                   : LC\nFormat settings, SBR             : No\nCodec ID                         : 40\nDuration                         : 1h 39mn\nBit rate mode                    : Variable\nBit rate                         : 375 Kbps\nMaximum bit rate                 : 712 Kbps\nChannel(s)                       : 6 channels\nChannel positions                : Front: L C R, Rear: L R, LFE\nSampling rate                    : 48.0 KHz\nResolution                       : 16 bits\nStream size                      : 268 MiB (10%)\nLanguage                         : English\n\nEnjoy....","torrent":{"xt":"urn:btih:4ad646de55be6f8dfd69935ee8595cff519c5871","amp;dn":"Into+The+White-720p+MP4+AAC+x264+BRRip+2012-CC","amp;tr":["udp%3A%2F%2Ftracker.openbittorrent.com%3A80","udp%3A%2F%2Fopen.demonii.com%3A1337","udp%3A%2F%2Ftracker.coppersurfer.tk%3A6969","udp%3A%2F%2Fexodus.desync.com%3A6969"],"infoHash":"4ad646de55be6f8dfd69935ee8595cff519c5871","infoHashBuffer":{"type":"Buffer","data":[74,214,70,222,85,190,111,141,253,105,147,94,232,89,92,255,81,156,88,113]},"announce":[],"urlList":[]}}